<?xml version="1.0" encoding="UTF-8" standalone="no"?>
<svg
   width="579.85547"
   height="27.695068"
   viewBox="0 0 579.85547 27.695068"
   fill="none"
   version="1.1"
   id="svg298"
   xmlns="http://www.w3.org/2000/svg"
   xmlns:svg="http://www.w3.org/2000/svg">
  <defs
     id="defs296" />
  <g
     id="New_Layer_1653488633.6088645"
     style="display:inline"
     transform="translate(-732.61284,-813.28772)">
    <g
       id="g9419">
      <path
         d="m 749.62884,826.12337 c 0.281,0 0.515,0.094 0.703,0.281 0.187,0.188 0.281,0.422 0.281,0.703 v 3.469 c 0,0.781 -0.328,1.172 -0.984,1.172 -4.657,0 -8.657,-1.672 -12,-5.01599 -3.344,-3.343 -5.016,-7.343 -5.016,-12 0,-0.656 0.391,-0.98401 1.172,-0.98401 h 3.469 c 0.281,0 0.515,0.094 0.703,0.281 0.187,0.188 0.281,0.422 0.281,0.703 0,1.219 0.187,2.391 0.563,3.516 0.124,0.406 0.046,0.75 -0.235,1.031 l -1.922,1.688 c 1.438,3 3.735,5.265 6.891,6.797 l 1.547,-1.969 c 0.187,-0.188 0.422,-0.281 0.703,-0.281 0.156,0 0.266,0.015 0.328,0.046 1.125,0.376 2.297,0.563 3.516,0.563 z"
         fill="#000000"
         fill-opacity="0.54"
         id="path17987" />
      <path
         d="m 1306.4683,834.52534 v -11.859 l -6,-2.109 v 11.859 z m 5.48,-15.984 c 0.35,0 0.52,0.172 0.52,0.516 v 15.093 c 0,0.25 -0.12,0.407 -0.38,0.469 l -5.62,1.922 -6,-2.109 -5.34,2.062 -0.14,0.047 c -0.35,0 -0.52,-0.172 -0.52,-0.516 v -15.093 c 0,-0.25 0.12,-0.407 0.38,-0.469 l 5.62,-1.922 6,2.109 5.34,-2.062 z"
         fill="#000000"
         fill-opacity="0.54"
         id="path17989" />
      <text
         fill="#000000"
         fill-opacity="0.87"
         xml:space="preserve"
         style="white-space:pre"
         font-family="Roboto"
         font-size="16px"
         letter-spacing="0.5px"
         id="text17993"
         y="825.45178"
         x="764.28864"><tspan
           x="764.28864"
           y="825.45178"
           id="tspan17991">Default Slot</tspan></text>
      <rect
         width="519"
         height="1"
         fill="#000000"
         fill-opacity="0.42"
         id="rect17995"
         x="764.28864"
         y="839.98279" />
      <path
         d="m 1260.73,813.74837 h 10.032 l -5.016,5.016 z"
         fill="#000000"
         fill-opacity="0.54"
         id="path17997" />
    </g>
  </g>
</svg>
