<?xml version="1.0" encoding="UTF-8" standalone="no"?>
<svg
   width="581.17969"
   height="41.914246"
   viewBox="0 0 581.17969 41.914246"
   fill="none"
   version="1.1"
   id="svg298"
   xmlns="http://www.w3.org/2000/svg"
   xmlns:svg="http://www.w3.org/2000/svg">
  <defs
     id="defs296" />
  <g
     id="New_Layer_1653488633.609667"
     style="display:inline"
     transform="translate(-731.28864,-620.28772)">
    <g
       id="g4576">
      <path
         d="m 1306.4683,641.52534 v -11.859 l -6,-2.109 v 11.859 z m 5.48,-15.984 c 0.35,0 0.52,0.172 0.52,0.516 v 15.093 c 0,0.25 -0.12,0.407 -0.38,0.469 l -5.62,1.922 -6,-2.109 -5.34,2.062 -0.14,0.047 c -0.35,0 -0.52,-0.172 -0.52,-0.516 v -15.093 c 0,-0.25 0.12,-0.407 0.38,-0.469 l 5.62,-1.922 6,2.109 5.34,-2.062 z"
         fill="#000000"
         fill-opacity="0.54"
         id="path18019" />
      <text
         fill="#000000"
         fill-opacity="0.87"
         xml:space="preserve"
         style="white-space:pre"
         font-family="Roboto"
         font-size="16px"
         letter-spacing="0.5px"
         id="text18023"
         y="662.08478"
         x="731.28864"><tspan
           x="731.28864"
           y="632.45178"
           id="tspan18021">Default Slot</tspan></text>
      <rect
         width="552"
         height="1"
         fill="#000000"
         fill-opacity="0.42"
         id="rect18025"
         x="731.28864"
         y="646.98279" />
      <text
         fill="#000000"
         fill-opacity="0.6"
         xml:space="preserve"
         style="white-space:pre"
         font-family="Roboto"
         font-size="12px"
         letter-spacing="0.4px"
         id="text18029"
         y="662.08478"
         x="731.28864"><tspan
           x="731.28864"
           y="662.08478"
           id="tspan18027">Default Slot</tspan></text>
      <path
         d="m 1260.73,620.74837 h 10.032 l -5.016,5.016 z"
         fill="#000000"
         fill-opacity="0.54"
         id="path18031" />
    </g>
  </g>
</svg>
