<?xml version="1.0" encoding="UTF-8" standalone="no"?>
<svg
   width="583.67578"
   height="27.694092"
   viewBox="0 0 583.67578 27.694092"
   fill="none"
   version="1.1"
   id="svg298"
   xmlns="http://www.w3.org/2000/svg"
   xmlns:svg="http://www.w3.org/2000/svg">
  <defs
     id="defs296" />
  <g
     id="New_Layer_1653488633.610082"
     style="display:inline"
     transform="translate(-732.61284,-1043.2886)">
    <g
       id="g8950">
      <path
         d="m 749.62884,1056.1284 c 0.281,0 0.515,0.09 0.703,0.28 0.187,0.18 0.281,0.42 0.281,0.7 v 3.47 c 0,0.78 -0.328,1.17 -0.984,1.17 -4.657,0 -8.657,-1.67 -12,-5.02 -3.344,-3.34 -5.016,-7.34 -5.016,-12 0,-0.65 0.391,-0.98 1.172,-0.98 h 3.469 c 0.281,0 0.515,0.09 0.703,0.28 0.187,0.19 0.281,0.42 0.281,0.7 0,1.22 0.187,2.4 0.563,3.52 0.124,0.41 0.046,0.75 -0.235,1.03 l -1.922,1.69 c 1.438,3 3.735,5.26 6.891,6.8 l 1.547,-1.97 c 0.187,-0.19 0.422,-0.28 0.703,-0.28 0.156,0 0.266,0.01 0.328,0.04 1.125,0.38 2.297,0.57 3.516,0.57 z"
         fill="#000000"
         fill-opacity="0.54"
         id="path18035" />
      <text
         fill="#000000"
         fill-opacity="0.87"
         xml:space="preserve"
         style="white-space:pre"
         font-family="Roboto"
         font-size="16px"
         letter-spacing="0.5px"
         id="text18039"
         y="1055.4526"
         x="764.28864"><tspan
           x="764.28864"
           y="1055.4526"
           id="tspan18037">Default Slot</tspan></text>
      <rect
         width="552"
         height="1"
         fill="#000000"
         fill-opacity="0.42"
         id="rect18041"
         x="764.28864"
         y="1069.9827" />
      <path
         d="m 1293.73,1043.7484 h 10.032 l -5.016,5.016 z"
         fill="#000000"
         fill-opacity="0.54"
         id="path18043" />
    </g>
  </g>
</svg>
