<?xml version="1.0" encoding="UTF-8" standalone="no"?>
<svg
   width="521"
   height="58"
   viewBox="0 0 521 58"
   fill="none"
   version="1.1"
   id="svg298"
   xmlns="http://www.w3.org/2000/svg"
   xmlns:svg="http://www.w3.org/2000/svg">
  <defs
     id="defs296" />
  <g
     id="New_Layer_1653488633.605254"
     style="display:inline"
     transform="translate(-65.28862,-656.98275)">
    <g
       id="g7827">
      <path
         d="m 550.73003,679.74837 h 10.032 l -5.016,5.016 z"
         fill="#000000"
         fill-opacity="0.54"
         id="path17877" />
      <text
         fill="#000000"
         fill-opacity="0.87"
         xml:space="preserve"
         style="white-space:pre"
         font-family="Roboto"
         font-size="16px"
         letter-spacing="0.5px"
         id="text17881"
         y="691.45178"
         x="78.28862"><tspan
           x="78.28862"
           y="691.45178"
           id="tspan17879">Outlined style</tspan></text>
      <path
         d="m 70.28862,658.98275 h 511 v -2 h -511 z m 514,3 v 48 h 2 v -48 z m -3,51 h -511 v 2 h 511 z m -514,-3 v -48 h -2 v 48 z m 3,3 c -1.657,0 -3,-1.343 -3,-3 h -2 c 0,2.761 2.239,5 5,5 z m 514,-3 c 0,1.657 -1.343,3 -3,3 v 2 c 2.761,0 5,-2.239 5,-5 z m -3,-51 c 1.657,0 3,1.343 3,3 h 2 c 0,-2.761 -2.239,-5 -5,-5 z m -511,-2 c -2.761,0 -5,2.239 -5,5 h 2 c 0,-1.657 1.343,-3 3,-3 z"
         fill="#000000"
         fill-opacity="0.42"
         id="path17883" />
    </g>
  </g>
</svg>
