<?xml version="1.0" encoding="UTF-8" standalone="no"?>
<svg
   width="581.17969"
   height="27.694092"
   viewBox="0 0 581.17969 27.694092"
   fill="none"
   version="1.1"
   id="svg298"
   xmlns="http://www.w3.org/2000/svg"
   xmlns:svg="http://www.w3.org/2000/svg">
  <defs
     id="defs296" />
  <g
     id="New_Layer_1653488633.605635"
     style="display:inline"
     transform="translate(-731.28864,-1158.2886)">
    <g
       id="g1667">
      <path
         d="m 1260.73,1158.7484 h 10.032 l -5.016,5.016 z"
         fill="#000000"
         fill-opacity="0.54"
         id="path17887" />
      <path
         d="m 1306.4683,1179.5214 v -11.86 l -6,-2.1 v 11.86 z m 5.48,-15.98 c 0.35,0 0.52,0.17 0.52,0.52 v 15.09 c 0,0.25 -0.12,0.41 -0.38,0.47 l -5.62,1.92 -6,-2.11 -5.34,2.06 -0.14,0.05 c -0.35,0 -0.52,-0.17 -0.52,-0.52 v -15.09 c 0,-0.25 0.12,-0.41 0.38,-0.47 l 5.62,-1.92 6,2.11 5.34,-2.06 z"
         fill="#000000"
         fill-opacity="0.54"
         id="path17889" />
      <text
         fill="#000000"
         fill-opacity="0.87"
         xml:space="preserve"
         style="white-space:pre"
         font-family="Roboto"
         font-size="16px"
         letter-spacing="0.5px"
         id="text17893"
         y="1170.4526"
         x="731.28864"><tspan
           x="731.28864"
           y="1170.4526"
           id="tspan17891">Default Slot</tspan></text>
      <rect
         width="552"
         height="1"
         fill="#000000"
         fill-opacity="0.42"
         id="rect17895"
         x="731.28864"
         y="1184.9827" />
    </g>
  </g>
</svg>
