<?xml version="1.0" encoding="UTF-8" standalone="no"?>
<svg
   width="521"
   height="42"
   viewBox="0 0 521 42"
   fill="none"
   version="1.1"
   id="svg298"
   xmlns="http://www.w3.org/2000/svg"
   xmlns:svg="http://www.w3.org/2000/svg">
  <defs
     id="defs296" />
  <g
     id="New_Layer_1653488633.6072562"
     style="display:inline"
     transform="translate(-65.28862,-742.98275)">
    <g
       id="g8519">
      <text
         fill="#000000"
         fill-opacity="0.87"
         xml:space="preserve"
         style="white-space:pre"
         font-family="Roboto"
         font-size="16px"
         letter-spacing="0.5px"
         id="text17939"
         y="769.45178"
         x="78.28862"><tspan
           x="78.28862"
           y="769.45178"
           id="tspan17937">Outlined style</tspan></text>
      <path
         d="m 70.28862,744.98275 h 511 v -2 h -511 z m 514,3 v 32 h 2 v -32 z m -3,35 h -511 v 2 h 511 z m -514,-3 v -32 h -2 v 32 z m 3,3 c -1.657,0 -3,-1.343 -3,-3 h -2 c 0,2.761 2.239,5 5,5 z m 514,-3 c 0,1.657 -1.343,3 -3,3 v 2 c 2.761,0 5,-2.239 5,-5 z m -3,-35 c 1.657,0 3,1.343 3,3 h 2 c 0,-2.761 -2.239,-5 -5,-5 z m -511,-2 c -2.761,0 -5,2.239 -5,5 h 2 c 0,-1.657 1.343,-3 3,-3 z"
         fill="#000000"
         fill-opacity="0.42"
         id="path17941" />
      <path
         d="m 550.73003,757.74837 h 10.032 l -5.016,5.016 z"
         fill="#000000"
         fill-opacity="0.54"
         id="path17943" />
    </g>
  </g>
</svg>
